<svg width="162" height="30" viewBox="0 0 162 30" fill="none" xmlns="http://www.w3.org/2000/svg">
<path d="M26.2877 15C26.2877 18.8659 24.7203 22.3662 22.1871 24.8994C19.6539 27.4326 16.1536 29 12.2877 29H9.00208C10.4017 23.5695 16.5148 18.1135 21.8486 18.1135C15.7823 18.1135 8.70624 11.0545 8.70624 5.00386C8.70624 8.39896 6.47887 12.1112 3.45215 14.7155V1H12.2877C20.0195 1 26.2877 7.26821 26.2877 15Z" fill="white"/>
<path d="M39.7466 22.5H34.5466L37.058 7.37273H42.2136C43.7155 7.37273 44.9614 7.68295 45.9511 8.30341C46.9409 8.92386 47.6352 9.81023 48.0341 10.9625C48.4379 12.1098 48.5068 13.4788 48.2409 15.0693C47.9848 16.6254 47.4801 17.9574 46.7267 19.0653C45.9733 20.1733 45.0057 21.0227 43.8239 21.6136C42.642 22.2045 41.283 22.5 39.7466 22.5ZM37.6784 20.129H39.8869C40.9358 20.129 41.8492 19.9295 42.6273 19.5307C43.4102 19.1269 44.0479 18.5286 44.5403 17.7358C45.0377 16.9381 45.3824 15.9483 45.5744 14.7665C45.7665 13.6339 45.7542 12.6983 45.5375 11.9597C45.3208 11.2161 44.8998 10.6621 44.2744 10.2977C43.654 9.92841 42.8316 9.74375 41.8074 9.74375H39.3994L37.6784 20.129ZM53.6135 22.7216C52.476 22.7216 51.5354 22.4852 50.7919 22.0125C50.0483 21.5348 49.5263 20.8602 49.226 19.9886C48.9305 19.1121 48.8813 18.0805 49.0782 16.8938C49.2703 15.7267 49.6618 14.7025 50.2527 13.821C50.8436 12.9347 51.5822 12.2453 52.4686 11.7528C53.3599 11.2555 54.3447 11.0068 55.4231 11.0068C56.1224 11.0068 56.765 11.1201 57.351 11.3466C57.937 11.5682 58.4318 11.9129 58.8356 12.3807C59.2394 12.8485 59.5176 13.4443 59.6703 14.1682C59.8229 14.8871 59.8155 15.7439 59.6481 16.7386L59.5226 17.5585H50.2157L50.5038 15.7563H57.2402C57.3288 15.2441 57.2993 14.7886 57.1515 14.3898C57.0038 13.986 56.7576 13.6684 56.4129 13.4369C56.0682 13.2055 55.6373 13.0898 55.1203 13.0898C54.5934 13.0898 54.101 13.2252 53.643 13.496C53.19 13.7619 52.8084 14.1066 52.4981 14.5301C52.1879 14.9536 51.9909 15.3992 51.9072 15.867L51.6044 17.5955C51.496 18.3045 51.5207 18.8831 51.6782 19.3313C51.8358 19.7794 52.1116 20.1093 52.5055 20.321C52.8995 20.5328 53.3968 20.6386 53.9976 20.6386C54.3915 20.6386 54.7559 20.5845 55.0907 20.4761C55.4256 20.3678 55.7235 20.2053 55.9845 19.9886C56.2504 19.767 56.472 19.4962 56.6493 19.1761L59.0941 19.4568C58.8233 20.1167 58.4269 20.6928 57.9049 21.1852C57.383 21.6727 56.7576 22.0519 56.0288 22.3227C55.3049 22.5886 54.4998 22.7216 53.6135 22.7216ZM70.4386 14.1534L67.9789 14.4193C67.9543 14.1682 67.878 13.9343 67.7499 13.7176C67.6219 13.5009 67.4299 13.3286 67.1738 13.2006C66.9227 13.0676 66.5977 13.0011 66.1988 13.0011C65.6177 13.0011 65.1081 13.1316 64.6698 13.3926C64.2316 13.6536 63.9829 13.9884 63.9238 14.3972C63.8696 14.7025 63.9435 14.9511 64.1454 15.1432C64.3473 15.3352 64.7215 15.4977 65.2681 15.6307L67.1443 16.0443C68.1784 16.2758 68.9219 16.65 69.3749 17.167C69.8329 17.6841 69.9929 18.3612 69.8551 19.1983C69.7369 19.8975 69.4316 20.5131 68.9391 21.0449C68.4467 21.5718 67.8164 21.983 67.0482 22.2784C66.285 22.5739 65.438 22.7216 64.5073 22.7216C63.0941 22.7216 62.0058 22.4286 61.2426 21.8426C60.4842 21.2517 60.1075 20.4392 60.1124 19.4051L62.742 19.154C62.7715 19.6661 62.9513 20.0527 63.2812 20.3136C63.6111 20.5697 64.0691 20.7002 64.6551 20.7051C65.3149 20.71 65.8713 20.5722 66.3244 20.2915C66.7823 20.0059 67.0409 19.6587 67.0999 19.25C67.1492 18.9447 67.0729 18.696 66.871 18.504C66.674 18.3119 66.3219 18.1593 65.8147 18.046L63.9534 17.6398C62.8996 17.4083 62.1486 17.0169 61.7005 16.4653C61.2573 15.9089 61.1071 15.2072 61.2499 14.3602C61.3681 13.6708 61.6562 13.0775 62.1141 12.5801C62.577 12.0778 63.1704 11.6913 63.8943 11.4205C64.6181 11.1447 65.4282 11.0068 66.3244 11.0068C67.6736 11.0068 68.6905 11.29 69.3749 11.8563C70.0594 12.4225 70.414 13.1883 70.4386 14.1534ZM70.6259 22.5L72.5168 11.1545H75.1907L73.2998 22.5H70.6259ZM74.2452 9.52955C73.8168 9.52955 73.4623 9.38674 73.1816 9.10114C72.9009 8.81553 72.7778 8.4733 72.8123 8.07443C72.8467 7.67557 73.0265 7.33333 73.3515 7.04773C73.6814 6.76212 74.0581 6.61932 74.4816 6.61932C74.91 6.61932 75.2621 6.76212 75.5378 7.04773C75.8185 7.33333 75.9416 7.67557 75.9072 8.07443C75.8776 8.4733 75.6979 8.81553 75.368 9.10114C75.043 9.38674 74.6687 9.52955 74.2452 9.52955ZM79.3943 26.9909C78.4292 26.9909 77.6241 26.8604 76.979 26.5994C76.3339 26.3434 75.8366 25.9987 75.487 25.5653C75.1373 25.132 74.9207 24.6519 74.837 24.125L77.3483 23.5415C77.4222 23.7631 77.5404 23.9822 77.7029 24.1989C77.8703 24.4205 78.1165 24.6027 78.4415 24.7455C78.7665 24.8932 79.1998 24.967 79.7415 24.967C80.4998 24.967 81.1621 24.7824 81.7284 24.4131C82.2947 24.0438 82.6443 23.443 82.7773 22.6108L83.1171 20.4614H82.9841C82.8068 20.7371 82.5631 21.0203 82.2529 21.3108C81.9476 21.6013 81.561 21.8451 81.0932 22.042C80.6303 22.239 80.0739 22.3375 79.4239 22.3375C78.5523 22.3375 77.7964 22.1331 77.1563 21.7244C76.5161 21.3108 76.0557 20.6953 75.775 19.8778C75.4993 19.0555 75.4648 18.0263 75.6716 16.7903C75.8735 15.5445 76.2527 14.4932 76.8091 13.6364C77.3705 12.7746 78.0426 12.1222 78.8256 11.679C79.6085 11.2309 80.4358 11.0068 81.3074 11.0068C81.9722 11.0068 82.5015 11.1201 82.8955 11.3466C83.2894 11.5682 83.5873 11.8366 83.7892 12.1517C83.9911 12.4619 84.1389 12.7549 84.2324 13.0307H84.3728L84.683 11.1545H87.3199L85.4142 22.6847C85.2567 23.6547 84.8947 24.4574 84.3284 25.0926C83.7621 25.7328 83.0506 26.208 82.1938 26.5182C81.3419 26.8333 80.4087 26.9909 79.3943 26.9909ZM80.4875 20.2398C81.0538 20.2398 81.561 20.1019 82.0091 19.8261C82.4572 19.5504 82.8315 19.154 83.1318 18.6369C83.4322 18.1199 83.6415 17.4994 83.7597 16.7756C83.8779 16.0616 83.8729 15.4362 83.7449 14.8994C83.6218 14.3627 83.383 13.9466 83.0284 13.6511C82.6739 13.3508 82.211 13.2006 81.6398 13.2006C81.044 13.2006 80.522 13.3557 80.0739 13.6659C79.6307 13.9761 79.2663 14.4021 78.9807 14.9438C78.7 15.4805 78.5031 16.0911 78.3898 16.7756C78.2815 17.4699 78.2815 18.078 78.3898 18.6C78.5031 19.117 78.732 19.5208 79.0767 19.8114C79.4264 20.097 79.8966 20.2398 80.4875 20.2398ZM91.0712 15.8523L89.978 22.5H87.2967L89.1876 11.1545H91.7507L91.4257 13.0824H91.566C91.9206 12.4472 92.4179 11.9424 93.0581 11.5682C93.6982 11.1939 94.4443 11.0068 95.2962 11.0068C96.0693 11.0068 96.7193 11.1742 97.2462 11.5091C97.7731 11.839 98.1473 12.3241 98.3689 12.9642C98.5905 13.5994 98.625 14.3701 98.4723 15.2761L97.2609 22.5H94.5871L95.7172 15.6898C95.8452 14.9364 95.7492 14.3455 95.4291 13.917C95.114 13.4837 94.6068 13.267 93.9075 13.267C93.4397 13.267 93.0089 13.3705 92.6149 13.5773C92.221 13.7792 91.8886 14.0722 91.6178 14.4563C91.3518 14.8403 91.1696 15.3057 91.0712 15.8523ZM106.665 22.5L104.907 7.37273H107.855L108.741 18.4892H108.881L113.631 7.37273H116.312L117.39 18.4966H117.523L122.088 7.37273H125.035L118.255 22.5H115.551L114.296 11.8858H114.177L109.369 22.5H106.665ZM125.503 22.729C124.784 22.729 124.159 22.6009 123.627 22.3449C123.095 22.0839 122.704 21.6998 122.453 21.1926C122.207 20.6854 122.145 20.06 122.268 19.3165C122.376 18.6763 122.583 18.147 122.889 17.7284C123.199 17.3098 123.578 16.975 124.026 16.7239C124.479 16.4678 124.972 16.2758 125.503 16.1477C126.04 16.0197 126.587 15.9261 127.143 15.867C127.823 15.7981 128.372 15.7341 128.79 15.675C129.214 15.6159 129.531 15.5273 129.743 15.4091C129.955 15.286 130.083 15.0989 130.127 14.8477V14.8034C130.216 14.247 130.127 13.8161 129.861 13.5108C129.595 13.2055 129.152 13.0528 128.532 13.0528C127.882 13.0528 127.335 13.1956 126.892 13.4813C126.449 13.7669 126.126 14.1042 125.924 14.4932L123.502 14.1386C123.807 13.4492 124.225 12.8731 124.757 12.4102C125.289 11.9424 125.902 11.5928 126.597 11.3614C127.296 11.125 128.042 11.0068 128.835 11.0068C129.376 11.0068 129.906 11.0708 130.423 11.1989C130.945 11.3269 131.405 11.5386 131.804 11.8341C132.208 12.1246 132.503 12.521 132.69 13.0233C132.882 13.5256 132.914 14.1534 132.786 14.9068L131.523 22.5H128.953L129.219 20.9415H129.13C128.918 21.2566 128.643 21.5521 128.303 21.8278C127.963 22.0987 127.559 22.3178 127.091 22.4852C126.624 22.6477 126.094 22.729 125.503 22.729ZM126.515 20.7642C127.052 20.7642 127.535 20.6583 127.963 20.4466C128.391 20.2299 128.743 19.9443 129.019 19.5898C129.295 19.2352 129.467 18.8487 129.536 18.4301L129.758 17.0932C129.659 17.1621 129.507 17.2261 129.3 17.2852C129.093 17.3443 128.862 17.396 128.606 17.4403C128.354 17.4847 128.106 17.5241 127.86 17.5585C127.613 17.593 127.402 17.6225 127.224 17.6472C126.816 17.7013 126.441 17.79 126.102 17.9131C125.767 18.0362 125.489 18.2085 125.267 18.4301C125.05 18.6468 124.915 18.9275 124.861 19.2722C124.782 19.7597 124.898 20.1314 125.208 20.3875C125.518 20.6386 125.954 20.7642 126.515 20.7642ZM138.517 7.37273L136.006 22.5H133.332L135.843 7.37273H138.517ZM143.061 7.37273L140.549 22.5H137.875L140.387 7.37273H143.061ZM147.412 22.7216C146.274 22.7216 145.334 22.4852 144.59 22.0125C143.847 21.5348 143.325 20.8602 143.024 19.9886C142.729 19.1121 142.68 18.0805 142.877 16.8938C143.069 15.7267 143.46 14.7025 144.051 13.821C144.642 12.9347 145.381 12.2453 146.267 11.7528C147.158 11.2555 148.143 11.0068 149.222 11.0068C149.921 11.0068 150.563 11.1201 151.149 11.3466C151.735 11.5682 152.23 11.9129 152.634 12.3807C153.038 12.8485 153.316 13.4443 153.469 14.1682C153.621 14.8871 153.614 15.7439 153.447 16.7386L153.321 17.5585H144.014L144.302 15.7563H151.039C151.127 15.2441 151.098 14.7886 150.95 14.3898C150.802 13.986 150.556 13.6684 150.211 13.4369C149.867 13.2055 149.436 13.0898 148.919 13.0898C148.392 13.0898 147.899 13.2252 147.441 13.496C146.988 13.7619 146.607 14.1066 146.297 14.5301C145.986 14.9536 145.789 15.3992 145.706 15.867L145.403 17.5955C145.294 18.3045 145.319 18.8831 145.477 19.3313C145.634 19.7794 145.91 20.1093 146.304 20.321C146.698 20.5328 147.195 20.6386 147.796 20.6386C148.19 20.6386 148.554 20.5845 148.889 20.4761C149.224 20.3678 149.522 20.2053 149.783 19.9886C150.049 19.767 150.27 19.4962 150.448 19.1761L152.893 19.4568C152.622 20.1167 152.225 20.6928 151.703 21.1852C151.181 21.6727 150.556 22.0519 149.827 22.3227C149.103 22.5886 148.298 22.7216 147.412 22.7216ZM161.445 11.1545L161.098 13.2227H154.583L154.923 11.1545H161.445ZM156.976 8.43636H159.65L157.877 19.0875C157.823 19.447 157.833 19.7227 157.907 19.9148C157.986 20.1019 158.111 20.2299 158.284 20.2989C158.461 20.3678 158.66 20.4023 158.882 20.4023C159.044 20.4023 159.197 20.39 159.34 20.3653C159.483 20.3358 159.596 20.3136 159.68 20.2989L159.798 22.3892C159.635 22.4384 159.416 22.4926 159.14 22.5517C158.87 22.6108 158.545 22.6453 158.165 22.6551C157.486 22.6699 156.895 22.5665 156.393 22.3449C155.895 22.1184 155.531 21.7712 155.3 21.3034C155.073 20.8307 155.021 20.2398 155.144 19.5307L156.976 8.43636Z" fill="white"/>
</svg>
